<svg width="612" height="612" viewBox="0 0 612 612" fill="none" xmlns="http://www.w3.org/2000/svg">
<g clip-path="url(#clip0_201_872)">
<path fill-rule="evenodd" clip-rule="evenodd" d="M194.017 371.195C168.881 382.127 147.673 347.484 140.487 332.686C127.654 306.215 137.448 275.822 150.336 269.387C162.135 263.5 174.392 271.105 174.392 271.105C174.392 271.105 195.307 290.767 200.159 332.348C203.07 357.228 194.017 371.195 194.017 371.195Z" fill="#B78376"/>
<path fill-rule="evenodd" clip-rule="evenodd" d="M433.815 371.195C458.942 382.127 480.159 347.484 487.345 332.686C500.178 306.215 490.384 275.822 477.496 269.387C465.697 263.5 453.44 271.105 453.44 271.105C453.44 271.105 432.525 290.767 427.673 332.348C424.763 357.228 433.815 371.195 433.815 371.195Z" fill="#B78376"/>
<mask id="mask0_201_872" style="mask-type:alpha" maskUnits="userSpaceOnUse" x="204" y="403" width="215" height="192">
<path fill-rule="evenodd" clip-rule="evenodd" d="M204.512 403.93H418.849V594.706H204.512V403.93Z" fill="white"/>
</mask>
<g mask="url(#mask0_201_872)">
<path fill-rule="evenodd" clip-rule="evenodd" d="M418.721 483.983L414.822 403.93H208.539L204.64 483.864C201.784 542.474 247.322 591.897 306.033 594.521C306.994 594.567 307.955 594.603 308.925 594.64C370.94 596.843 421.742 545.874 418.721 483.983Z" fill="#B78376"/>
</g>
<path fill-rule="evenodd" clip-rule="evenodd" d="M307.942 93.2344C200.901 93.2344 146.263 186.268 165.001 294.785C174.209 348.121 173.861 347.07 186.017 400.158C191.537 424.299 243.565 502.753 316.161 502.753C384.035 502.753 433.253 426.227 438.772 401.539C450.397 349.519 451.038 348.34 458.086 294.785C472.457 185.6 422.177 93.2344 315.145 93.2344H307.942Z" fill="#C99382"/>
<path fill-rule="evenodd" clip-rule="evenodd" d="M315.766 505.254C279.043 505.254 249.33 485.483 230.868 468.902C229.925 468.061 229.843 466.608 230.694 465.676C231.545 464.734 233.001 464.661 233.925 465.502C251.793 481.553 280.498 500.684 315.766 500.684C350.422 500.684 378.44 480.209 395.841 463.025C396.747 462.138 398.194 462.147 399.081 463.043C399.969 463.939 399.96 465.392 399.063 466.279C381.04 484.057 351.968 505.254 315.766 505.254Z" fill="#9B6160"/>
<path fill-rule="evenodd" clip-rule="evenodd" d="M330.281 364.486H305.795C303.269 364.486 301.219 362.438 301.219 359.915C301.219 357.392 303.269 355.345 305.795 355.345H325.585L323.773 286.041C323.755 285.172 323.983 284.313 324.432 283.564L338.391 260.401C339.691 258.235 342.51 257.54 344.67 258.847C346.84 260.145 347.535 262.952 346.226 265.118L332.954 287.138L334.858 359.796C334.885 361.03 334.418 362.219 333.558 363.105C332.698 363.983 331.517 364.486 330.281 364.486Z" fill="#9B6160"/>
<path fill-rule="evenodd" clip-rule="evenodd" d="M280.189 264.361C280.07 264.361 279.941 264.361 279.813 264.352L220.975 259.617L208.663 263.813C206.256 264.645 203.665 263.356 202.851 260.97C202.036 258.585 203.318 255.979 205.707 255.166L218.915 250.66C219.51 250.459 220.151 250.385 220.764 250.431L280.555 255.23C283.072 255.44 284.948 257.643 284.747 260.157C284.555 262.552 282.55 264.361 280.189 264.361Z" fill="#4A3D39"/>
<path fill-rule="evenodd" clip-rule="evenodd" d="M345.278 264.361C342.917 264.361 340.912 262.552 340.72 260.157C340.518 257.643 342.395 255.44 344.912 255.23L404.703 250.431C405.334 250.385 405.957 250.459 406.552 250.66L419.76 255.166C422.149 255.979 423.431 258.585 422.607 260.97C421.792 263.356 419.193 264.654 416.794 263.813L404.492 259.617L345.653 264.352C345.525 264.361 345.397 264.361 345.278 264.361Z" fill="#4A3D39"/>
<path fill-rule="evenodd" clip-rule="evenodd" d="M389.236 302.013C389.236 312.022 383.103 320.138 375.543 320.138C367.982 320.138 361.858 312.022 361.858 302.013C361.858 292.004 367.982 283.887 375.543 283.887C383.103 283.887 389.236 292.004 389.236 302.013Z" fill="#5C4E4A"/>
<path fill-rule="evenodd" clip-rule="evenodd" d="M247.966 320.138C240.414 320.138 234.281 312.022 234.281 302.013C234.281 292.004 240.414 283.887 247.966 283.887C255.536 283.887 261.659 292.004 261.659 302.013C261.659 312.022 255.536 320.138 247.966 320.138Z" fill="#5C4E4A"/>
<path fill-rule="evenodd" clip-rule="evenodd" d="M329.039 430.67H304.178C301.652 430.67 299.601 428.622 299.601 426.099C299.601 423.577 301.652 421.529 304.178 421.529H329.039C331.565 421.529 333.616 423.577 333.616 426.099C333.616 428.622 331.565 430.67 329.039 430.67Z" fill="#9B6160"/>
<path fill-rule="evenodd" clip-rule="evenodd" d="M337.357 399.464H293.53C285.969 399.464 278.738 397.115 272.623 392.663C270.582 391.182 270.124 388.321 271.616 386.283C273.108 384.235 275.964 383.797 278.015 385.277C282.555 388.577 287.919 390.323 293.53 390.323H337.357C343.673 390.323 349.805 388.495 355.096 385.04C357.201 383.66 360.048 384.245 361.43 386.365C362.813 388.477 362.218 391.31 360.103 392.69C353.32 397.124 345.458 399.464 337.357 399.464Z" fill="#9B6160"/>
<path fill-rule="evenodd" clip-rule="evenodd" d="M433.134 250.585L442.857 265.35L452.75 315.795C457.943 293.124 462.229 246.967 462.229 240.923C462.229 143.309 413.528 74.3729 317.996 74.3729C207.35 74.3729 160.545 140.81 160.545 240.789C160.545 280.831 172.685 316.924 172.685 316.924L178.489 265.35C178.489 265.35 186.774 252.241 187.34 250.226C189.451 242.66 190.512 204.204 197.628 174.88C197.628 174.88 418.569 175.014 423.008 175.014C430.331 206.63 433.134 250.585 433.134 250.585Z" fill="#9B6160"/>
<path fill-rule="evenodd" clip-rule="evenodd" d="M423.007 176.085C423.007 176.085 451.68 213.476 460.953 245.836C466.02 203.815 467.063 170.668 464.331 147.513C462.642 133.223 460.108 113.48 432.918 79.4462C423.564 67.7435 422.801 87.0122 422.801 87.0122C422.801 87.0122 421.318 72.7218 399.394 57.5988C378.62 43.2637 386.742 61.7982 386.742 61.7982C386.742 61.7982 376.625 52.1996 363.129 38.2674C349.633 24.3442 330.647 16.5991 321.805 15.5784C314.177 14.7009 301.372 28.7137 278.801 36.5841C245.07 48.3495 227.746 72.5875 226.147 73.5366C227.315 66.4094 229.049 52.7458 211.339 69.3642C196.208 83.5471 181.148 106.666 180.349 107.445C180.501 100.828 179.693 89.564 170.86 104.651C159.053 124.824 154.839 146.672 154.839 146.672C149.834 165.421 161.578 252.56 161.578 252.56C171.705 210.539 198.265 176.506 198.265 176.506C198.265 176.506 250.767 173.99 315.911 182.809C363.974 173.99 423.007 176.085 423.007 176.085Z" fill="#4A3D39"/>
</g>
<defs>
<clipPath id="clip0_201_872">
<rect width="612" height="612" fill="white"/>
</clipPath>
</defs>
</svg>
