<svg width="183" height="183" viewBox="0 0 183 183" fill="none" xmlns="http://www.w3.org/2000/svg">
<g clip-path="url(#clip0_201_951)">
<path fill-rule="evenodd" clip-rule="evenodd" d="M93.7814 183.26C78.4198 183.26 66.3583 170.101 67.7018 154.801L71.2153 114.835H116.347L119.858 154.801C121.204 170.101 109.143 183.26 93.7814 183.26Z" fill="#EFADAB"/>
<path fill-rule="evenodd" clip-rule="evenodd" d="M134.235 83.4574C134.235 42.271 124.238 22.6724 93.2116 22.6724C64.7516 22.6724 48.6416 42.271 52.3084 83.4424C52.3084 83.4424 52.3084 104.591 66.1312 123.484C71.3549 130.626 83.239 139.006 93.4941 139.276C103.882 139.543 113.677 132.735 120.857 123.202C128.573 112.953 134.235 99.2313 134.235 83.4574Z" fill="#FFC2BD"/>
<path fill-rule="evenodd" clip-rule="evenodd" d="M93.661 140.523C87.6498 140.523 80.6257 137.813 75.3328 133.448C75.0142 133.183 74.9691 132.709 75.2336 132.39C75.4951 132.069 75.97 132.024 76.2916 132.288C81.326 136.443 87.9804 139.021 93.661 139.021C98.9238 139.021 106.696 135.635 113.002 130.59C113.327 130.335 113.798 130.383 114.057 130.708C114.315 131.032 114.264 131.504 113.94 131.762C107.288 137.083 99.3265 140.523 93.661 140.523Z" fill="#D18888"/>
<path fill-rule="evenodd" clip-rule="evenodd" d="M98.7605 108.988H91.4388C90.6834 108.988 90.0703 108.376 90.0703 107.622C90.0703 106.867 90.6834 106.255 91.4388 106.255H97.3564L96.8145 85.5318C96.809 85.2721 96.8774 85.0152 97.0115 84.7911L101.186 77.8651C101.574 77.2173 102.417 77.0096 103.063 77.4004C103.712 77.7886 103.92 78.6277 103.528 79.2754L99.5597 85.8598L100.129 107.586C100.137 107.955 99.9977 108.311 99.7404 108.576C99.4831 108.838 99.13 108.988 98.7605 108.988Z" fill="#D18888"/>
<path fill-rule="evenodd" clip-rule="evenodd" d="M65.344 79.5916C64.815 79.5916 64.3041 79.3122 64.0306 78.8194C63.6248 78.0923 63.8863 77.1789 64.6137 76.7763C72.6596 72.3086 84.9435 75.3732 85.4605 75.5054C86.263 75.7097 86.7499 76.5269 86.5455 77.3322C86.3381 78.1344 85.5206 78.6241 84.7181 78.4168C84.6039 78.3868 73.0684 75.5204 66.0714 79.4023C65.8429 79.5315 65.5905 79.5916 65.344 79.5916Z" fill="#CC8A21"/>
<path fill-rule="evenodd" clip-rule="evenodd" d="M121.661 79.5916C121.414 79.5916 121.162 79.5315 120.933 79.4023C113.933 75.5144 103.08 78.3807 102.969 78.4108C102.182 78.6361 101.346 78.1554 101.127 77.3532C100.91 76.554 101.385 75.7277 102.188 75.5114C102.674 75.3762 114.333 72.2995 122.391 76.7763C123.119 77.1789 123.38 78.0923 122.974 78.8194C122.701 79.3121 122.19 79.5916 121.661 79.5916Z" fill="#CC8A21"/>
<path fill-rule="evenodd" clip-rule="evenodd" d="M116.389 90.3077C116.389 93.3006 114.555 95.7277 112.295 95.7277C110.034 95.7277 108.203 93.3006 108.203 90.3077C108.203 87.3148 110.034 84.8877 112.295 84.8877C114.555 84.8877 116.389 87.3148 116.389 90.3077Z" fill="#5C4E4A"/>
<path fill-rule="evenodd" clip-rule="evenodd" d="M74.1466 95.7277C71.8885 95.7277 70.0547 93.3006 70.0547 90.3077C70.0547 87.3148 71.8885 84.8877 74.1466 84.8877C76.4102 84.8877 78.2413 87.3148 78.2413 90.3077C78.2413 93.3006 76.4102 95.7277 74.1466 95.7277Z" fill="#5C4E4A"/>
<path fill-rule="evenodd" clip-rule="evenodd" d="M94.2495 119.968C88.6291 119.968 84.9472 118.805 84.7188 118.73C83.9283 118.475 83.4985 117.631 83.751 116.84C84.0064 116.053 84.854 115.624 85.6415 115.873C85.7196 115.897 93.441 118.301 103.441 115.843C104.249 115.642 105.061 116.137 105.259 116.943C105.457 117.748 104.964 118.562 104.159 118.76C100.486 119.665 97.1169 119.968 94.2495 119.968Z" fill="#D18888"/>
<path fill-rule="evenodd" clip-rule="evenodd" d="M94.3625 128.09C91.5283 128.09 89.6738 127.201 89.5566 127.144C88.9976 126.87 88.7691 126.194 89.0426 125.635C89.3191 125.08 89.9864 124.848 90.5484 125.119C90.6897 125.191 94.1281 126.789 98.7658 124.986C99.3428 124.77 99.998 125.047 100.223 125.629C100.449 126.209 100.163 126.861 99.5803 127.087C97.6417 127.841 95.8653 128.09 94.3625 128.09Z" fill="#D18888"/>
<path fill-rule="evenodd" clip-rule="evenodd" d="M85.2765 22.4161C85.024 20.6498 84.6247 19.49 84.0175 19.3963C76.6838 18.2696 53.5527 17.1429 45.654 53.2365C44.9278 55.9578 44.6679 58.2595 44.4055 60.5844C43.8522 65.4852 43.2873 70.4888 38.3174 79.7426C28.5935 97.8511 36.6566 106.554 42.3801 112.731C45.1235 115.692 47.3294 118.073 46.7811 120.632C45.089 128.528 45.654 138.959 57.5021 146.855C60.6496 148.953 64.5137 150.254 68.4914 151.035L70.6032 127.013C69.0634 125.54 67.7286 124.039 66.6682 122.589C52.8455 103.697 52.8455 82.5477 52.8455 82.5477C49.5601 45.6591 62.151 26.0886 85.2765 22.4161Z" fill="#CC8A21"/>
<path fill-rule="evenodd" clip-rule="evenodd" d="M52.7631 81.599C52.7891 81.9139 52.8162 82.2301 52.8444 82.5476C52.8444 82.5476 52.8444 94.9979 59.0879 109.327C44.5643 108.259 40.7695 87.1338 44.9652 82.7589C47.4207 80.1951 50.3832 80.5616 52.7631 81.599Z" fill="#EFADAB"/>
<path fill-rule="evenodd" clip-rule="evenodd" d="M127.598 65.627C134.087 72.1138 134.721 84.0629 134.721 84.0629C134.721 84.0629 150.164 18.8161 93.1836 18.8161C36.7654 18.8161 52.9506 83.8496 52.9506 83.8496C52.9506 83.8496 53.7711 72.8559 58.2044 67.0361L60.9485 42.0473L86.8536 42.8895L124.373 42.0923L127.598 65.627Z" fill="#CC8A21"/>
<path fill-rule="evenodd" clip-rule="evenodd" d="M86.8372 43.649C86.8372 43.649 72.8221 41.1642 65.1157 49.2885C57.3583 57.4669 61.1664 67.3339 57.4995 69.5903C51.293 80.5869 53.8327 82.5639 54.3978 92.9957C48.1912 76.6389 48.7562 65.0804 49.6008 54.9281C50.1809 47.9755 51.7378 34.6894 66.4051 32.9979C81.0755 31.3063 86.8372 43.649 86.8372 43.649Z" fill="#CC8A21"/>
<path fill-rule="evenodd" clip-rule="evenodd" d="M86.5042 43.5712C86.5042 43.5712 84.8632 29.5489 84.5806 20.5263C84.5235 18.7416 93.6636 15.5087 96.4287 14.8867C113.918 10.9388 119.996 27.7883 135.354 36.3152C150.587 44.776 145.576 48.9974 149.46 58.8763C152.564 66.7723 159.05 64.2515 163.565 74.6682C167.232 83.1261 159.573 88.3359 164.13 94.4051C170.898 103.428 174.283 106.249 172.591 114.145C170.333 122.041 152.844 129.372 152.844 129.372L150.025 118.658C150.025 118.658 151.771 129.438 147.767 132.755C143.953 135.913 133.662 141.781 120.125 148.547C118.43 144.037 114.348 133.074 119.509 123.09C126.067 110.401 120.068 109.797 118.43 97.7883C116.738 85.3825 123.509 79.7429 112.788 71.2821C104.192 64.4978 105.743 59.3661 103.762 52.1071C100.378 39.7013 86.5042 43.5712 86.5042 43.5712Z" fill="#FAAD14"/>
</g>
<defs>
<clipPath id="clip0_201_951">
<rect width="183" height="183" fill="white"/>
</clipPath>
</defs>
</svg>
