<svg width="206" height="206" viewBox="0 0 206 206" fill="none" xmlns="http://www.w3.org/2000/svg">
<g clip-path="url(#clip0_201_1094)">
<path fill-rule="evenodd" clip-rule="evenodd" d="M63.8981 124.945C55.4375 128.625 48.2986 116.964 45.88 111.982C41.5603 103.072 44.857 92.842 49.1952 90.676C53.1667 88.6946 57.2923 91.2544 57.2923 91.2544C57.2923 91.2544 64.3325 97.8725 65.9655 111.869C66.9453 120.244 63.8981 124.945 63.8981 124.945" fill="#EFADAB"/>
<path fill-rule="evenodd" clip-rule="evenodd" d="M147.833 124.945C156.291 128.625 163.433 116.964 165.851 111.982C170.171 103.072 166.874 92.842 162.536 90.676C158.565 88.6946 154.439 91.2544 154.439 91.2544C154.439 91.2544 147.399 97.8725 145.766 111.869C144.786 120.244 147.833 124.945 147.833 124.945" fill="#EFADAB"/>
<mask id="mask0_201_1094" style="mask-type:alpha" maskUnits="userSpaceOnUse" x="68" y="135" width="73" height="66">
<path fill-rule="evenodd" clip-rule="evenodd" d="M68.8391 135.963H140.985V200.179H68.8391V135.963Z" fill="white"/>
</mask>
<g mask="url(#mask0_201_1094)">
<path fill-rule="evenodd" clip-rule="evenodd" d="M140.942 162.909L139.63 135.963H70.1945L68.882 162.869C67.9207 182.597 83.249 199.233 103.011 200.116C103.335 200.132 103.658 200.144 103.985 200.156C124.859 200.898 141.959 183.742 140.942 162.909" fill="#EFADAB"/>
</g>
<path fill-rule="evenodd" clip-rule="evenodd" d="M103.654 31.3828C67.6234 31.3828 49.2325 62.6979 55.5394 99.2251C58.639 117.178 58.5219 116.824 62.6136 134.694C64.4715 142.819 81.9843 169.227 106.42 169.227C129.267 169.227 145.833 143.469 147.691 135.158C151.604 117.649 151.82 117.252 154.192 99.2251C159.03 62.4733 142.105 31.3828 106.078 31.3828H103.654Z" fill="#FFC2BD"/>
<path fill-rule="evenodd" clip-rule="evenodd" d="M106.287 170.069C93.9261 170.069 83.9249 163.414 77.7104 157.833C77.393 157.55 77.3653 157.061 77.6518 156.747C77.9384 156.43 78.4283 156.405 78.7395 156.689C84.7537 162.091 94.416 168.531 106.287 168.531C117.952 168.531 127.383 161.639 133.241 155.855C133.546 155.556 134.032 155.559 134.331 155.861C134.63 156.162 134.627 156.652 134.325 156.95C128.259 162.934 118.473 170.069 106.287 170.069" fill="#D18888"/>
<path fill-rule="evenodd" clip-rule="evenodd" d="M111.173 122.686H102.931C102.081 122.686 101.391 121.997 101.391 121.148C101.391 120.299 102.081 119.61 102.931 119.61H109.592L108.982 96.2817C108.976 95.9894 109.053 95.7002 109.204 95.4479L113.903 87.6514C114.34 86.9222 115.289 86.6884 116.016 87.1284C116.747 87.5653 116.981 88.5098 116.54 89.239L112.073 96.6509L112.714 121.108C112.723 121.523 112.566 121.923 112.276 122.222C111.986 122.517 111.589 122.686 111.173 122.686" fill="#D18888"/>
<path fill-rule="evenodd" clip-rule="evenodd" d="M94.3118 88.9844C94.2718 88.9844 94.2286 88.9844 94.1855 88.9813L74.3804 87.3876L70.2363 88.7998C69.426 89.0798 68.554 88.646 68.2798 87.8429C68.0056 87.0399 68.437 86.163 69.2411 85.8892L73.6871 84.3724C73.8874 84.3047 74.1031 84.28 74.3095 84.2954L94.4351 85.9107C95.2824 85.9815 95.914 86.723 95.8462 87.5691C95.7815 88.3752 95.1068 88.9844 94.3118 88.9844" fill="#CC8A21"/>
<path fill-rule="evenodd" clip-rule="evenodd" d="M116.221 88.9844C115.426 88.9844 114.751 88.3752 114.687 87.5691C114.619 86.723 115.251 85.9815 116.098 85.9107L136.223 84.2954C136.436 84.28 136.646 84.3047 136.846 84.3724L141.292 85.8892C142.096 86.163 142.527 87.0399 142.25 87.8429C141.976 88.646 141.101 89.0828 140.294 88.7998L136.153 87.3876L116.347 88.9813C116.304 88.9844 116.261 88.9844 116.221 88.9844" fill="#CC8A21"/>
<path fill-rule="evenodd" clip-rule="evenodd" d="M131.017 101.658C131.017 105.027 128.953 107.759 126.408 107.759C123.863 107.759 121.802 105.027 121.802 101.658C121.802 98.2888 123.863 95.5566 126.408 95.5566C128.953 95.5566 131.017 98.2888 131.017 101.658" fill="#5C4E4A"/>
<path fill-rule="evenodd" clip-rule="evenodd" d="M83.4656 107.759C80.9237 107.759 78.8594 105.027 78.8594 101.658C78.8594 98.2888 80.9237 95.5566 83.4656 95.5566C86.0136 95.5566 88.0749 98.2888 88.0749 101.658C88.0749 105.027 86.0136 107.759 83.4656 107.759Z" fill="#5C4E4A"/>
<path fill-rule="evenodd" clip-rule="evenodd" d="M110.755 144.964H102.387C101.536 144.964 100.846 144.275 100.846 143.426C100.846 142.576 101.536 141.887 102.387 141.887H110.755C111.605 141.887 112.296 142.576 112.296 143.426C112.296 144.275 111.605 144.964 110.755 144.964" fill="#D18888"/>
<path fill-rule="evenodd" clip-rule="evenodd" d="M113.555 134.46H98.8025C96.2575 134.46 93.8235 133.669 91.7653 132.171C91.0782 131.672 90.9242 130.709 91.4264 130.023C91.9286 129.334 92.8899 129.186 93.5801 129.685C95.1083 130.796 96.9138 131.383 98.8025 131.383H113.555C115.681 131.383 117.745 130.768 119.526 129.605C120.234 129.14 121.193 129.337 121.658 130.051C122.123 130.762 121.923 131.716 121.211 132.18C118.928 133.672 116.281 134.46 113.555 134.46" fill="#D18888"/>
<path fill-rule="evenodd" clip-rule="evenodd" d="M70.549 57.8876C70.549 57.8876 61.0069 59.3306 61.0069 74.3482C61.0069 77.2988 57.9351 78.1479 57.6824 81.7108C57.1032 89.7965 56.3083 100.193 56.3083 100.193C56.3083 100.193 47.4286 72.1975 46.9819 69.4377C34.4049 64.241 38.3086 61.2105 38.3086 61.2105C38.3086 61.2105 40.0433 58.8998 41.7779 53.4109C33.9705 54.7124 38.3086 49.9465 38.3086 49.9465C38.3086 49.9465 51.8007 30.9568 53.9235 27.4247C53.9235 27.4247 66.7901 8.79808 80.3807 10.5303C77.7803 7.35509 78.6461 2.73382 82.9842 5.90902C91.0813 7.93352 101.569 -1.53363 115.81 9.40113C146.889 8.50887 161.025 40.424 160.193 44.8945C162.088 46.5282 163.083 48.0697 161.638 52.9802C163.012 58.3952 158.914 78.3202 158.458 80.0494L154.336 99.759C154.197 100.359 152.952 90.9872 152.096 82.4338C151.517 76.6588 148.047 77.0342 148.047 74.6374C148.047 55.0016 132.722 57.5984 132.722 57.5984L105.251 61.0658C105.251 61.0658 77.0562 55.94 70.549 57.8876" fill="#FAAD14"/>
<path fill-rule="evenodd" clip-rule="evenodd" d="M105.25 61.0649C105.25 61.0649 99.9076 34.3711 77.7793 37.3863C63.4647 39.3369 54.7914 60.7757 38.3077 61.2095C34.4039 59.3327 38.4525 69.4398 46.9809 69.4398C53.6329 68.6337 60.9751 61.8556 69.103 58.6097C75.6103 56.0098 86.887 58.1759 105.25 61.0649" fill="#CC8A21"/>
<path fill-rule="evenodd" clip-rule="evenodd" d="M105.539 61.0649C105.539 61.0649 106.839 44.7489 101.201 38.8293C92.8571 30.0698 82.6926 25.8362 69.9709 34.208C57.2491 42.5829 41.7759 53.4131 41.7759 53.4131C41.7759 53.4131 64.3017 34.7741 70.2605 30.4544C88.1893 17.4613 108.518 20.7719 109.877 42.0076C110.743 55.5791 105.539 61.0649 105.539 61.0649" fill="#CC8A21"/>
<path fill-rule="evenodd" clip-rule="evenodd" d="M47.85 72.2541C47.85 72.2541 53.054 71.3865 63.4649 63.3746C61.0771 68.7897 48.9346 76.3677 48.9346 76.3677L47.85 72.2541Z" fill="#CC8A21"/>
<path fill-rule="evenodd" clip-rule="evenodd" d="M106.75 60.425C106.75 60.425 123.955 53.6377 121.354 33.4265C125.69 37.4694 124.824 44.9766 124.824 44.9766C124.824 44.9766 129.452 21.5841 116.727 10.0371C131.765 16.9659 134.655 42.0907 126.269 54.7945C133.787 49.884 140.439 50.4625 145.932 53.0623C151.426 55.6591 160.392 44.6874 160.392 44.6874C160.392 44.6874 156.343 54.5053 149.405 56.5267C158.657 55.9483 161.837 52.7731 161.837 52.7731C161.837 52.7731 162.995 64.2525 160.176 72.6981C157.018 77.1656 147.38 66.9231 147.38 66.9231C147.38 66.9231 144.198 58.6928 139.57 58.4036C136.101 57.539 106.75 60.425 106.75 60.425" fill="#CC8A21"/>
<path fill-rule="evenodd" clip-rule="evenodd" d="M147.885 68.8546C147.885 68.8546 153.16 78.3833 158.802 78.4571C159.162 76.2173 159.307 75.7834 159.307 75.7834C159.307 75.7834 152.8 74.7743 147.885 68.8546" fill="#CC8A21"/>
</g>
<defs>
<clipPath id="clip0_201_1094">
<rect width="206" height="206" fill="white"/>
</clipPath>
</defs>
</svg>
